<?xml version="1.0" standalone="no"?>
<!DOCTYPE svg PUBLIC "-//W3C//DTD SVG 20010904//EN"
 "http://www.w3.org/TR/2001/REC-SVG-20010904/DTD/svg10.dtd">
<svg version="1.0" xmlns="http://www.w3.org/2000/svg"
 width="122.000000pt" height="122.000000pt" viewBox="0 0 122.000000 122.000000"
 preserveAspectRatio="xMidYMid meet">
<metadata>
Created by potrace 1.11, written by Peter Selinger 2001-2013
</metadata>
<g transform="translate(0.000000,122.000000) scale(0.100000,-0.100000)"
fill="#000000" stroke="none">
<path d="M564 1203 c4 -9 10 -36 13 -59 5 -36 3 -42 -17 -47 -12 -3 -31 -1
-41 6 -24 15 -34 4 -20 -21 6 -12 11 -32 11 -46 0 -33 13 -33 28 -1 8 16 20
25 35 25 21 0 26 -7 37 -60 10 -49 15 -58 26 -49 10 8 13 30 12 66 -3 55 -3
55 32 67 25 8 35 17 35 31 0 17 -6 20 -41 18 -38 -3 -41 -1 -62 42 -12 26 -29
45 -38 45 -11 0 -14 -5 -10 -17z"/>
<path d="M320 1008 c-41 -21 -89 -56 -130 -98 -212 -212 -214 -557 -6 -766 92
-92 196 -139 311 -141 l60 -1 -55 8 c-249 39 -424 242 -435 505 -7 197 115
409 284 493 35 18 58 32 50 32 -8 0 -43 -15 -79 -32z"/>
<path d="M822 843 c-12 -2 -27 -14 -33 -26 -12 -22 -12 -22 9 -4 31 28 90 27
113 -2 26 -32 25 -85 -3 -111 -21 -19 -31 -22 -90 -24 -47 -2 -38 -11 10 -11
78 2 112 -23 112 -81 0 -36 -16 -62 -49 -79 -27 -14 -44 -14 -94 0 -19 5 -19
4 3 -9 14 -9 37 -15 51 -16 36 0 91 40 100 73 11 41 -7 92 -37 105 l-25 12 27
24 c39 33 38 100 -1 133 -25 22 -44 25 -93 16z"/>
<path d="M421 664 c-1 -98 2 -174 6 -170 10 10 11 336 1 342 -4 3 -7 -75 -7
-172z"/>
<path d="M487 832 c7 -4 39 -8 72 -7 46 1 61 -3 63 -15 2 -8 3 -75 3 -147 -1
-73 2 -133 6 -133 4 0 7 70 6 155 l-1 155 -81 0 c-44 0 -74 -4 -68 -8z"/>
<path d="M699 818 c-4 -131 -2 -312 3 -321 4 -7 8 68 8 166 0 97 -2 177 -5
177 -3 0 -5 -10 -6 -22z"/>
<path d="M982 666 c-1 -91 2 -167 6 -170 5 -3 8 63 8 146 -1 82 2 152 5 154 3
2 23 -15 44 -36 22 -22 44 -40 50 -40 6 0 29 18 50 41 l40 40 5 -153 6 -153 2
170 2 169 -53 -52 -53 -52 -49 50 c-27 27 -52 50 -55 50 -4 0 -7 -74 -8 -164z"/>
<path d="M626 505 c4 -8 8 -15 10 -15 2 0 4 7 4 15 0 8 -4 15 -10 15 -5 0 -7
-7 -4 -15z"/>
<path d="M724 452 c-62 -40 -67 -134 -8 -161 l26 -12 -25 -19 c-51 -40 -42
-129 15 -149 47 -16 73 -13 94 11 l19 22 -23 -16 c-27 -18 -78 -14 -104 9 -55
49 -2 144 76 137 16 -2 36 1 44 5 11 6 5 9 -19 8 -73 0 -90 4 -109 23 -29 29
-27 84 5 115 13 14 31 26 40 26 8 1 21 2 28 3 6 1 26 -4 42 -12 28 -13 29 -13
14 2 -25 26 -79 30 -115 8z"/>
<path d="M427 453 c-10 -9 -9 -333 1 -333 4 0 29 22 55 49 l48 49 46 -49 c25
-27 50 -49 54 -49 5 0 9 77 9 172 0 94 -3 168 -6 165 -4 -4 -7 -77 -7 -163 l0
-157 -44 46 c-24 26 -48 47 -53 47 -4 0 -25 -18 -46 -40 -21 -22 -41 -40 -44
-40 -3 0 -5 70 -4 155 0 85 -1 155 -1 155 -1 0 -5 -3 -8 -7z"/>
<path d="M920 285 c0 -98 3 -175 6 -172 8 8 7 337 -1 345 -3 3 -5 -75 -5 -173z"/>
<path d="M986 288 c1 -90 2 -166 3 -170 0 -5 36 -8 79 -7 48 0 70 3 57 8 -11
5 -41 7 -68 6 -26 -1 -50 2 -53 7 -3 5 -6 78 -6 163 0 85 -3 155 -7 155 -3 0
-6 -73 -5 -162z"/>
<path d="M1191 304 c0 -11 3 -14 6 -6 3 7 2 16 -1 19 -3 4 -6 -2 -5 -13z"/>
<path d="M1192 260 c0 -14 2 -19 5 -12 2 6 2 18 0 25 -3 6 -5 1 -5 -13z"/>
<path d="M1191 134 c0 -11 3 -14 6 -6 3 7 2 16 -1 19 -3 4 -6 -2 -5 -13z"/>
</g>
</svg>
